<svg xmlns="http://www.w3.org/2000/svg" viewBox="0 0 512 512">
  <defs>
    <linearGradient id="bgGrad" x1="0%" y1="0%" x2="100%" y2="100%">
      <stop offset="0%" stop-color="#8b5cf6"/>
      <stop offset="100%" stop-color="#4f46e5"/>
    </linearGradient>
  </defs>
  <rect width="512" height="512" rx="112" fill="url(#bgGrad)"/>
  <!-- Signal bars — wail/hair -->
  <rect x="244" y="40" width="24" height="120" rx="12" fill="white" opacity="0.9"/>
  <rect x="204" y="64" width="20" height="96" rx="10" fill="white" opacity="0.65"/>
  <rect x="288" y="64" width="20" height="96" rx="10" fill="white" opacity="0.65"/>
  <rect x="168" y="88" width="16" height="72" rx="8" fill="white" opacity="0.4"/>
  <rect x="328" y="88" width="16" height="72" rx="8" fill="white" opacity="0.4"/>
  <rect x="136" y="108" width="12" height="52" rx="6" fill="white" opacity="0.22"/>
  <rect x="364" y="108" width="12" height="52" rx="6" fill="white" opacity="0.22"/>
  <!-- Geometric face outline -->
  <path d="M256 180 L328 210 L338 275 L310 350 L278 385 L256 395 L234 385 L202 350 L174 275 L184 210 Z" stroke="white" stroke-width="6" fill="none" opacity="0.8" stroke-linejoin="round"/>
  <!-- Eyes — LED bars -->
  <rect x="198" y="248" width="42" height="8" rx="4" fill="white" opacity="0.95"/>
  <rect x="272" y="248" width="42" height="8" rx="4" fill="white" opacity="0.95"/>
  <!-- Mouth — speaker emitter -->
  <circle cx="256" cy="335" r="28" stroke="white" stroke-width="6" fill="none" opacity="0.9"/>
  <circle cx="256" cy="335" r="10" fill="white" opacity="0.6"/>
  <!-- Sound indicators — left -->
  <rect x="108" y="255" width="44" height="5" rx="2.5" fill="white" opacity="0.4"/>
  <rect x="96" y="272" width="56" height="5" rx="2.5" fill="white" opacity="0.25"/>
  <rect x="108" y="289" width="44" height="5" rx="2.5" fill="white" opacity="0.15"/>
  <!-- Sound indicators — right -->
  <rect x="360" y="255" width="44" height="5" rx="2.5" fill="white" opacity="0.4"/>
  <rect x="360" y="272" width="56" height="5" rx="2.5" fill="white" opacity="0.25"/>
  <rect x="360" y="289" width="44" height="5" rx="2.5" fill="white" opacity="0.15"/>
  <!-- Digital trail -->
  <rect x="244" y="412" width="24" height="60" rx="12" fill="white" opacity="0.15"/>
  <rect x="208" y="424" width="16" height="48" rx="8" fill="white" opacity="0.1"/>
  <rect x="288" y="424" width="16" height="48" rx="8" fill="white" opacity="0.1"/>
</svg>
